   <svg class="w-[302px] lg:w-[454px] max-w-full" width="454" height="219" viewBox="0 0 454 219" fill="none" xmlns="http://www.w3.org/2000/svg">
           <path d="M215 124H315V210H215V124ZM1 124H101V210H1V124ZM345 124H445V210H345V124ZM131 124H185V210H131V124Z" stroke="#FF2D20" stroke-width="2" />
           <path d="M223 132H323V218H223V132ZM9 132H109V218H9V132ZM353 132H453V218H353V132ZM139 132H193V218H139V132Z" fill="white" stroke="#565454" stroke-width="2" />
           <path d="M229 138H234" stroke="#565454" stroke-width="2" />
           <path d="M219.625 39.375V47.25M219.625 12.375L211.75 7.875L203.875 12.375L211.75 16.875L219.625 12.375ZM219.625 12.375V30.375" stroke="#FF2D20" stroke-width="1.5" stroke-linecap="round" stroke-linejoin="round" />
           <path d="M203.875 12.375V38.25L219.625 47.25L235.375 38.25V21.375" stroke="#FF2D20" stroke-width="1.5" stroke-linecap="round" stroke-linejoin="round" />
           <path d="M211.75 16.875V34.875L219.625 39.375L243.25 25.875V16.875" stroke="#FF2D20" stroke-width="1.5" stroke-linecap="round" stroke-linejoin="round" />
           <path d="M227.5 16.875L235.375 12.375L243.25 16.875L235.375 21.375L227.5 16.875ZM227.5 16.875V25.875M227.5 25.875L235.375 30.375M227.5 25.875L211.75 34.875" stroke="#FF2D20" stroke-width="1.5" stroke-linecap="round" stroke-linejoin="round" />
           <path d="M237 138H242M163 139H169M245 138H250M15 138H20M359 138H364M23 138H28M367 138H372M31 138H36M375 138H380" stroke="#565454" stroke-width="2" />
           <path d="M394 124V94M264 124V94M50 124V94M222 94V64M157 124V94M49 94H395" stroke="#FF2D20" stroke-width="2" />
           <path d="M70.1326 170.39C69.7814 170.271 69.4272 170.161 69.0704 170.06C69.1303 169.818 69.1855 169.579 69.2345 169.345C70.0386 165.493 69.5129 162.39 67.7174 161.369C65.9958 160.389 63.1804 161.41 60.337 163.852C60.0568 164.093 59.7827 164.341 59.5152 164.596C59.3361 164.427 59.1539 164.26 58.9685 164.098C55.9885 161.487 53.0014 160.387 51.2078 161.411C49.4879 162.394 48.9785 165.311 49.7025 168.961C49.7745 169.322 49.8558 169.682 49.9464 170.039C49.5236 170.158 49.1156 170.284 48.7251 170.418C45.2312 171.62 43 173.504 43 175.458C43 177.476 45.3953 179.5 49.0344 180.727C49.3294 180.826 49.6269 180.918 49.9265 181.002C49.8292 181.387 49.7428 181.775 49.6674 182.165C48.9773 185.751 49.5162 188.599 51.2316 189.576C53.0033 190.584 55.9769 189.548 58.8722 187.05C59.107 186.847 59.3366 186.638 59.5608 186.424C59.8506 186.7 60.148 186.968 60.4529 187.227C63.2576 189.608 66.0276 190.57 67.7412 189.591C69.5112 188.58 70.0866 185.521 69.3397 181.798C69.2808 181.507 69.2149 181.217 69.1418 180.928C69.3506 180.867 69.5556 180.804 69.7554 180.739C73.5385 179.502 76 177.503 76 175.458C76 173.497 73.6967 171.6 70.1326 170.39ZM69.3121 179.419C69.1316 179.477 68.9465 179.534 68.7578 179.59C68.3401 178.285 67.7766 176.898 67.0868 175.464C67.745 174.065 68.2869 172.696 68.6928 171.4C69.0304 171.496 69.358 171.598 69.6738 171.705C72.7276 172.742 74.5903 174.276 74.5903 175.458C74.5903 176.716 72.5786 178.351 69.3121 179.419ZM67.9568 182.068C68.287 183.714 68.3341 185.203 68.1153 186.366C67.9189 187.411 67.5236 188.108 67.0348 188.387C65.9949 188.981 63.7709 188.209 61.3724 186.173C61.0888 185.932 60.8121 185.683 60.5426 185.426C61.4725 184.423 62.4018 183.256 63.3088 181.961C64.9041 181.821 66.4113 181.593 67.7781 181.281C67.8439 181.542 67.9035 181.805 67.9568 182.068ZM54.2504 188.285C53.2344 188.639 52.4251 188.649 51.9359 188.371C50.895 187.778 50.4623 185.491 51.0525 182.424C51.1227 182.062 51.203 181.701 51.2934 181.343C52.6452 181.638 54.1414 181.85 55.7404 181.978C56.6536 183.246 57.6097 184.411 58.5733 185.432C58.3685 185.627 58.1589 185.818 57.9446 186.003C56.6642 187.107 55.3812 187.891 54.2504 188.285ZM49.4904 179.411C47.8813 178.868 46.5524 178.163 45.6415 177.393C44.823 176.702 44.4098 176.015 44.4098 175.458C44.4098 174.272 46.2013 172.76 49.1892 171.732C49.5518 171.607 49.9313 171.49 50.3251 171.379C50.7381 172.705 51.2798 174.09 51.9335 175.492C51.2713 176.914 50.7219 178.322 50.3049 179.662C50.0313 179.585 49.7598 179.501 49.4904 179.411ZM51.086 168.694C50.4659 165.566 50.8777 163.207 51.9143 162.615C53.0182 161.984 55.4594 162.884 58.0325 165.138C58.2003 165.285 58.3654 165.436 58.5277 165.589C57.5689 166.605 56.6215 167.761 55.7165 169.022C54.1644 169.163 52.6788 169.391 51.3129 169.697C51.2288 169.364 51.1531 169.03 51.086 168.694ZM65.3208 172.162C64.9981 171.612 64.6636 171.069 64.3172 170.533C65.3701 170.665 66.379 170.839 67.3263 171.052C67.0419 171.952 66.6874 172.892 66.2702 173.856C65.9652 173.285 65.6486 172.72 65.3208 172.162ZM59.5159 166.583C60.1661 167.278 60.8173 168.054 61.4578 168.896C60.1585 168.836 58.8569 168.835 57.5575 168.895C58.1987 168.061 58.8555 167.286 59.5159 166.583ZM53.6737 172.171C53.3499 172.725 53.0393 173.287 52.7421 173.855C52.3317 172.894 51.9804 171.95 51.6936 171.038C52.6351 170.83 53.6391 170.66 54.6854 170.531C54.3352 171.07 53.9979 171.617 53.6737 172.171ZM54.7154 180.484C53.6345 180.365 52.6154 180.203 51.6741 180.001C51.9654 179.073 52.3244 178.108 52.7438 177.127C53.0422 177.695 53.3541 178.257 53.6792 178.811C54.0136 179.381 54.3599 179.939 54.7154 180.484ZM59.5548 184.43C58.8865 183.719 58.2201 182.932 57.5692 182.086C58.2011 182.11 58.8453 182.123 59.5 182.123C60.1726 182.123 60.8375 182.108 61.492 182.079C60.8494 182.941 60.2006 183.729 59.5548 184.43ZM66.2834 177.077C66.7246 178.069 67.0963 179.028 67.3915 179.941C66.4348 180.156 65.4017 180.33 64.3132 180.459C64.662 179.913 64.9998 179.361 65.3263 178.802C65.6583 178.234 65.9774 177.659 66.2834 177.077ZM64.1052 178.107C63.6053 178.964 63.0773 179.804 62.5221 180.627C61.5163 180.698 60.5083 180.732 59.5 180.732C58.473 180.732 57.4741 180.7 56.5122 180.639C55.9425 179.818 55.4044 178.976 54.8992 178.115C54.3964 177.258 53.9268 176.383 53.4913 175.491C53.9257 174.599 54.394 173.723 54.8951 172.866L54.895 172.866C55.3959 172.009 55.9296 171.17 56.4951 170.353C57.4764 170.279 58.4828 170.241 59.4999 170.241C60.5216 170.241 61.5294 170.28 62.5105 170.354C63.0702 171.17 63.6005 172.005 64.1005 172.859C64.6033 173.714 65.0778 174.585 65.5231 175.471C65.0823 176.366 64.6094 177.245 64.1052 178.107ZM67.0133 162.574C68.1183 163.202 68.5481 165.738 67.8538 169.064C67.8094 169.276 67.7597 169.492 67.7055 169.711C66.3363 169.399 64.8496 169.167 63.2931 169.023C62.3863 167.749 61.4467 166.591 60.5035 165.588C60.7507 165.353 61.0038 165.124 61.2625 164.901C63.6989 162.809 65.9759 161.983 67.0133 162.574ZM59.5 172.55C61.1274 172.55 62.4468 173.852 62.4468 175.458C62.4468 177.064 61.1274 178.365 59.5 178.365C57.8726 178.365 56.5532 177.064 56.5532 175.458C56.5532 173.852 57.8726 172.55 59.5 172.55Z" fill="#00D8FF" />
           <path d="M414.6 161H422L403.5 191.972L385 161H399.153L403.5 168.182L407.755 161H414.6Z" fill="#41B883" />
           <path d="M385 161L403.5 191.972L422 161H414.6L403.5 179.583L392.308 161H385Z" fill="#41B883" />
           <path d="M392.307 161L403.5 179.673L414.6 161H407.755L403.5 168.182L399.152 161H392.307Z" fill="#35495E" />
           <path fill-rule="evenodd" clip-rule="evenodd" d="M286.231 183.803C285.655 184.672 285.219 185.741 284.051 185.741C282.085 185.741 281.979 182.712 280.011 182.712C278.044 182.712 278.151 185.741 276.185 185.741C274.219 185.741 274.113 182.712 272.145 182.712C270.178 182.712 270.285 185.741 268.319 185.741C266.353 185.741 266.247 182.712 264.28 182.712C262.312 182.712 262.419 185.741 260.454 185.741C259.835 185.741 259.402 185.441 259.035 185.031C257.629 182.585 256.819 179.719 256.819 176.653C256.819 167.681 263.756 160.408 272.313 160.408C280.871 160.408 287.808 167.681 287.808 176.654C287.808 179.219 287.241 181.646 286.231 183.803Z" fill="#FB70A9" />
           <path fill-rule="evenodd" clip-rule="evenodd" d="M266.126 182.199V188.929C266.126 190.136 265.146 191.115 263.937 191.115C263.65 191.115 263.366 191.059 263.1 190.949C262.835 190.839 262.593 190.678 262.39 190.475C262.187 190.272 262.026 190.031 261.916 189.766C261.806 189.5 261.749 189.216 261.749 188.929V180.805C262.157 180.056 262.623 179.408 263.465 179.408C264.834 179.408 265.312 181.127 266.126 182.2V182.199ZM274.391 182.55V193.192C274.391 193.511 274.328 193.827 274.206 194.122C274.084 194.416 273.905 194.684 273.679 194.91C273.454 195.135 273.186 195.314 272.891 195.436C272.596 195.558 272.28 195.621 271.961 195.621C270.618 195.621 269.529 194.533 269.529 193.192V181.147C269.987 180.265 270.459 179.408 271.426 179.408C272.958 179.408 273.375 181.558 274.392 182.55H274.391ZM282.173 182.355V190.08C282.173 191.288 281.193 192.266 279.985 192.266C278.776 192.266 277.796 191.288 277.796 190.08V180.585C278.177 179.933 278.63 179.408 279.389 179.408C280.826 179.408 281.281 181.302 282.173 182.355Z" fill="#4E56A6" />
           <path fill-rule="evenodd" clip-rule="evenodd" d="M266.126 184.262C265.737 183.787 265.278 183.434 264.613 183.434C263.035 183.434 262.745 185.422 261.749 186.317V177.746C261.749 177.459 261.806 177.175 261.916 176.909C262.026 176.644 262.187 176.403 262.39 176.2C262.593 175.997 262.834 175.836 263.1 175.726C263.365 175.616 263.65 175.56 263.937 175.56C265.146 175.56 266.126 176.539 266.126 177.746V184.262ZM274.391 184.415C273.978 183.864 273.494 183.434 272.76 183.434C271.004 183.434 270.843 185.894 269.529 186.575V182.784C269.529 181.442 270.618 180.354 271.961 180.354C272.28 180.354 272.596 180.417 272.891 180.539C273.186 180.661 273.454 180.84 273.68 181.065C273.905 181.291 274.084 181.559 274.207 181.854C274.329 182.148 274.392 182.464 274.392 182.784L274.391 184.415ZM282.173 183.99C281.836 183.658 281.437 183.434 280.907 183.434C279.206 183.434 279.001 185.743 277.796 186.505V178.812C277.796 178.231 278.027 177.675 278.437 177.264C278.848 176.854 279.404 176.623 279.985 176.623C280.565 176.623 281.122 176.854 281.532 177.264C281.942 177.675 282.173 178.231 282.173 178.812V183.99Z" fill="black" fill-opacity="0.298" />
           <path fill-rule="evenodd" clip-rule="evenodd" d="M286.231 183.803C285.655 184.672 285.219 185.741 284.051 185.741C282.085 185.741 281.979 182.712 280.011 182.712C278.044 182.712 278.151 185.741 276.185 185.741C274.219 185.741 274.113 182.712 272.145 182.712C270.178 182.712 270.285 185.741 268.319 185.741C266.353 185.741 266.247 182.712 264.28 182.712C262.312 182.712 262.419 185.741 260.454 185.741C259.835 185.741 259.402 185.441 259.035 185.031C257.629 182.585 256.819 179.719 256.819 176.653C256.819 167.681 263.756 160.408 272.313 160.408C280.871 160.408 287.808 167.681 287.808 176.654C287.808 179.219 287.241 181.646 286.231 183.803Z" fill="#FB70A9" />
           <path fill-rule="evenodd" clip-rule="evenodd" d="M282.878 185.417C286.938 179.381 287.042 172.687 283.192 165.333C286.046 168.255 287.808 172.264 287.808 176.688C287.808 179.245 287.22 181.661 286.173 183.811C285.578 184.675 285.124 185.741 283.913 185.741C283.543 185.744 283.181 185.631 282.878 185.417Z" fill="#E24CA6" />
           <path fill-rule="evenodd" clip-rule="evenodd" d="M271.483 180.707C276.871 180.707 279.139 177.583 279.139 173.148C279.139 168.712 275.711 164.63 271.483 164.63C267.254 164.63 263.826 168.712 263.826 173.148C263.826 177.584 266.094 180.707 271.483 180.707Z" fill="white" />
           <path fill-rule="evenodd" clip-rule="evenodd" d="M272.295 170.233C272.295 171.981 271.009 173.4 269.424 173.4C267.837 173.4 266.552 171.981 266.552 170.233C266.552 168.484 267.837 167.065 269.424 167.065C271.009 167.065 272.295 168.484 272.295 170.233Z" fill="#030776" />
           <path fill-rule="evenodd" clip-rule="evenodd" d="M270.38 169.502C270.38 170.309 269.738 170.963 268.945 170.963C268.151 170.963 267.509 170.309 267.509 169.502C267.509 168.695 268.151 168.041 268.945 168.041C269.738 168.041 270.38 168.695 270.38 169.502Z" fill="white" />
           <path d="M168.922 163.007C168.922 163.007 175.139 166.561 176.766 172.207C178.232 177.307 177.058 179.741 177.058 179.741C177.808 180.558 178.399 181.507 178.8 182.541C179.203 183.205 179.44 183.957 179.491 184.732C179.541 185.507 179.404 186.283 179.09 186.994C179.09 186.994 178.99 184.914 175.89 184.483C173.049 184.083 172.016 186.849 166.59 186.715C163.584 186.658 160.637 185.866 158.007 184.409C155.376 182.951 153.143 180.873 151.5 178.354C154.151 179.8 157.624 182.045 161.949 181.7C166.274 181.355 167.177 180.026 167.177 180.026C162.315 176.179 158.012 171.675 154.391 166.643C157.791 169.488 166.213 175.15 166.017 175.006C162.936 171.996 160.118 168.729 157.592 165.24C157.592 165.24 170.228 175.629 171.245 175.563C171.663 174.702 173.824 170.245 168.921 163.006L168.922 163.007Z" fill="url(#paint0_linear_1_2)" />
           <defs>
             <linearGradient id="paint0_linear_1_2" x1="165.94" y1="172.607" x2="165.411" y2="187.006" gradientUnits="userSpaceOnUse">
               <stop stop-color="#F88535" />
               <stop offset="1" stop-color="#FD2221" />
             </linearGradient>
           </defs>
         </svg>